<?xml version="1.0" standalone="no"?> <!DOCTYPE svg PUBLIC "-//W3C//DTD SVG 1.0//EN" "http://www.w3.org/TR/2001/REC-SVG-20010904/DTD/svg10.dtd" > <svg xmlns="http://www.w3.org/2000/svg" width="100%" height="100%">
<defs >
<font horiz-adv-x="2201" ><font-face
    font-family="FogtwoNo5"
    units-per-em="4000"
    panose-1="0 0 6 0 0 0 0 0 0 0"
    ascent="3100"
    descent="-916"
    alphabetic="0" />
<missing-glyph horiz-adv-x="1072" d="M196 96H784V1872H196V96ZM96 0V1968H884V0H96Z" />
<glyph unicode=" " glyph-name="space" horiz-adv-x="884" />
<glyph unicode="!" glyph-name="exclam" horiz-adv-x="768" d="M236 2684Q236 2692 256 2703T312 2723T384 2732Q440 2732 486 2718T532 2688Q532 2364 474 1708T416 728H356Q356 998 326 1352T266 2060T236 2684ZM384 268Q450 268 491 227T532 116Q532 49 492
9T384 -32Q317 -32 277 8T236 116Q236 183 276 225T384 268Z" />
<glyph unicode="&quot;" glyph-name="quotedbl" horiz-adv-x="764" d="M472 2164L516 2696Q603 2692 643 2668T683 2590Q683 2542 636 2432L520 2156L472 2164ZM108 2164L152 2696Q239 2692 279 2668T319 2590Q319 2542 272 2432L156 2156L108 2164Z" />
<glyph unicode="#" glyph-name="numbersign" horiz-adv-x="1536" d="M448 184L384 192L440 744H88V808H448L500 1304H148V1368H504L560 1908L624 1900L568 1368H1008L1064 1908L1128 1900L1072 1368H1448V1304H1064L1012 808H1392V744H1008L952 184L888 192L944
744H504L448 184ZM560 1304L512 808H952L1004 1304H560Z" />
<glyph unicode="$" glyph-name="dollar" horiz-adv-x="1628" d="M104 948L164 952L176 764Q186 620 236 506T366 319T549 207T772 168V1152Q553 1242 459 1298Q253 1420 196 1592Q172 1666 172 1752Q172 1982 335 2127T772 2288V2672H832V2288Q923 2288 1057 2272T1252
2256Q1324 2256 1368 2264L1404 1568H1344L1336 1704Q1331 1805 1297 1897T1202 2063T1045 2182T832 2228V1388Q859 1377 913 1354Q997 1320 1040 1301T1159 1244T1276 1175T1371 1095T1452 994T1500 873T1520 724Q1520 439 1339 280T832 108V-276H772V108Q670
108 491 136T256 164Q196 164 140 148L104 948ZM772 1412V2228Q594 2213 499 2110T404 1824Q404 1761 423 1707T474 1613T555 1535T654 1470T772 1412ZM832 1128V172Q1038 187 1153 316T1268 672Q1268 744 1244 805T1183 910T1084 996T968 1065T832 1128Z" />
<glyph unicode="%" glyph-name="percent" horiz-adv-x="2156" d="M1532 72Q1662 72 1741 176T1820 452Q1820 633 1734 760T1524 888Q1396 888 1318 784T1240 508Q1240 328 1325 200T1532 72ZM1528 20Q1312 20 1180 146T1048 480Q1048 604 1112 710T1287 878T1528
940Q1745 940 1878 813T2012 480Q2012 356 1947 250T1771 82T1528 20ZM1860 2076L1904 2036L320 296L276 340L1860 2076ZM632 1508Q762 1508 841 1612T920 1888Q920 2069 834 2196T624 2324Q496 2324 418 2220T340 1944Q340 1764 425 1636T632 1508ZM628 1456Q412
1456 280 1582T148 1916Q148 2040 212 2146T387 2314T628 2376Q845 2376 978 2249T1112 1916Q1112 1792 1047 1686T871 1518T628 1456Z" />
<glyph unicode="&amp;" glyph-name="ampersand" horiz-adv-x="2048" d="M892 2272Q1049 2272 1226 2226Q1295 2208 1352 2208L1364 1648H1304L1296 1788Q1293 1846 1280 1900T1238 2013T1164 2114T1049 2184T888 2212Q706 2212 595 2098T484 1796Q484 1680 535
1570T676 1388T868 1316H920V1256H848Q619 1256 494 1091T368 624Q368 367 540 210T996 52Q1297 52 1480 195T1664 572Q1664 680 1620 775T1487 933T1288 996Q1172 996 1100 930T1028 760Q1028 684 1084 630T1220 576V528Q1111 528 1032 609T952 801Q952 853 970
903T1030 1002T1130 1088T1276 1151T1468 1184Q1518 1187 1551 1190T1631 1198T1710 1210T1781 1228T1846 1254T1899 1289T1941 1335T1966 1394T1976 1468V1508H2020Q2028 1439 2028 1360Q2028 1292 2016 1238T1982 1147T1926 1082T1855 1040T1768 1015T1671 1003T1564
1000H1496Q1603 938 1665 818T1728 564Q1728 298 1508 135T928 -28Q683 -28 496 53T207 282T104 624Q104 888 259 1075T660 1296V1300Q573 1316 489 1389T350 1567T296 1776Q296 1911 376 2025T593 2205T892 2272Z" />
<glyph unicode="&apos;" glyph-name="quotesingle" horiz-adv-x="416" d="M108 2164L152 2696Q239 2692 279 2668T319 2590Q319 2542 272 2432L156 2156L108 2164Z" />
<glyph unicode="(" glyph-name="parenleft" horiz-adv-x="904" d="M112 483T112 984T299 1970T812 2780L856 2736Q711 2591 605 2304T447 1677T396 984T447 291T604 -336T856 -768L812 -812Q487 -487 300 -2Z" />
<glyph unicode=")" glyph-name="parenright" horiz-adv-x="904" d="M792 1485T792 984T605 -2T92 -812L48 -768Q193 -623 299 -336T457 291T508 984T457 1677T300 2304T48 2736L92 2780Q417 2455 604 1970Z" />
<glyph unicode="*" glyph-name="asterisk" horiz-adv-x="884" d="M492 2324L772 2192L776 2180L740 2116H728L472 2288L468 2296L460 2292L468 2284L488 1976L484 1964H408L400 1976L420 2284L428 2292L420 2296L416 2288L160 2116H148L112 2180L116 2192L392
2324H400V2336L392 2332L116 2468L112 2480L148 2544H160L416 2372L420 2364L428 2368L420 2376L400 2684L408 2696H484L488 2684L468 2376L460 2368L468 2364L472 2372L728 2544H740L776 2480L772 2468L492 2332L488 2336V2324H492Z" />
<glyph unicode="+" glyph-name="plus" horiz-adv-x="1444" d="M780 1100H1360L1352 1008H780V424L688 432V1008H88L92 1100H688V1700L780 1696V1100Z" />
<glyph unicode="," glyph-name="comma" horiz-adv-x="648" d="M200 -272Q265 -272 322 -216T392 -88Q393 -79 394 -60T398 -29T404 -12L392 -8Q386 -17 366 -24T328 -32Q256 -32 216 6T176 116T216 228T328 268Q393 268 432 226T472 116Q472 -71 398 -185T200 -300V-272Z" />
<glyph unicode="-" glyph-name="hyphen" horiz-adv-x="1240" d="M1168 1008H60L72 1100H1184L1168 1008Z" />
<glyph unicode="." glyph-name="period" horiz-adv-x="648" d="M328 268Q394 268 433 227T472 116Q472 49 434 9T328 -32Q261 -32 219 8T176 116Q176 183 218 225T328 268Z" />
<glyph unicode="/" glyph-name="slash" horiz-adv-x="1872" d="M60 -752L1720 2768L1808 2724L144 -796L60 -752Z" />
<glyph unicode="0" glyph-name="zero" horiz-adv-x="1936" d="M952 2364Q792 2364 669 2234T479 1865T412 1316Q412 968 487 672T693 204T976 32Q1123 32 1248 173T1447 555T1520 1080Q1520 1460 1450 1752T1250 2204T952 2364ZM964 2424Q1150 2424 1305 2336T1570
2089T1739 1702T1800 1200Q1800 1001 1758 814T1638 475T1458 210T1228 34T964 -28Q780 -28 626 61T364 309T196 698T136 1200Q136 1400 177 1586T295 1923T473 2187T701 2362T964 2424Z" />
<glyph unicode="1" glyph-name="one" horiz-adv-x="1080" d="M1048 0H32V32H248Q292 32 317 37T365 63T398 116T416 213T426 358T428 568V1796Q428 1944 436 1992L424 1996Q394 1946 340 1892L120 1640L96 1656L224 1820Q495 2167 555 2253Q644 2381 644 2424H688V568Q688
489 688 434T691 325T695 237T704 169T716 117T733 81T755 55T784 41T820 34T864 32H1048V0Z" />
<glyph unicode="2" glyph-name="two" horiz-adv-x="1552" d="M1432 0H116V208Q150 212 239 274T400 428Q533 603 634 746T835 1049T998 1342T1101 1611T1140 1860Q1140 2095 1030 2229T724 2364Q622 2364 539 2326T401 2224T314 2082T268 1916V1804H208V2244Q236
2244 244 2252Q335 2334 463 2379T724 2424Q1029 2424 1214 2258T1400 1820Q1400 1723 1370 1616T1289 1407T1160 1190T998 973T807 754T601 539T384 328L244 208L256 192Q279 196 346 202T448 208H928Q1002 208 1053 210T1159 220T1249 242T1319 281T1373 341T1408
425T1426 540L1432 636L1472 632L1432 0Z" />
<glyph unicode="3" glyph-name="three" horiz-adv-x="1588" d="M116 208V632H176V528Q184 438 220 352T318 194T473 77T680 32Q914 32 1057 202T1200 648Q1200 850 1140 1008T967 1257T704 1348H400V1408H652Q785 1408 886 1477T1039 1664T1092 1928Q1092 2109
973 2236T684 2364Q594 2364 520 2336T397 2263T314 2157T262 2034T240 1904V1792H184V2276Q208 2276 296 2324Q373 2369 478 2395T680 2424Q870 2424 1016 2363T1243 2190T1324 1932Q1324 1810 1269 1691T1120 1490T920 1388V1384Q1079 1363 1207 1254T1403 984T1472
648Q1472 511 1409 386T1240 170T988 26T680 -28Q540 -28 387 32T116 208Z" />
<glyph unicode="4" glyph-name="four" horiz-adv-x="1652" d="M152 592H1080V1392H1320V592H1540V472H1320V436Q1320 214 1367 123T1528 32H1592V0H716V32H868Q983 32 1031 123T1080 436V472H60V548Q376 1202 536 1685T696 2364V2396Q764 2396 802 2397T889 2402T966
2414T1026 2436T1078 2473T1116 2528L1136 2524L152 592Z" />
<glyph unicode="5" glyph-name="five" horiz-adv-x="1620" d="M116 220V632H176V528Q179 445 215 359T313 200T471 79T680 32Q834 32 952 124T1135 383T1200 768Q1200 967 1131 1136T941 1405T680 1504Q556 1504 431 1462T220 1352H164L224 2284Q230 2396 240
2396H1128Q1173 2396 1197 2397T1246 2404T1281 2418T1302 2447T1318 2491T1328 2556L1332 2576L1364 2572L1340 2192H484Q441 2192 418 2192T368 2188T331 2180T306 2165T289 2142T279 2107T273 2062T268 2000L228 1432Q323 1495 442 1529T680 1564Q917 1564 1098
1465T1377 1185T1476 768Q1476 606 1413 459T1244 205T990 35T680 -28Q536 -25 381 38T116 220Z" />
<glyph unicode="6" glyph-name="six" horiz-adv-x="1728" d="M888 -28Q671 -28 504 112T244 508T152 1096Q152 1332 189 1539T295 1908T460 2185T676 2363T932 2424Q1050 2424 1163 2400T1348 2352T1436 2328V1844H1404V1888Q1391 1955 1370 2016T1311 2143T1222
2256T1097 2333T932 2364Q773 2364 654 2198T476 1753T416 1128H432Q507 1314 646 1413T944 1512Q1246 1512 1431 1297T1616 728Q1616 524 1518 350T1253 74T888 -28ZM888 32Q1010 32 1114 125T1279 379T1340 728Q1340 925 1284 1090T1133 1352T924 1448Q837 1448
750 1397T593 1257T478 1034T432 748Q459 410 580 221T888 32Z" />
<glyph unicode="7" glyph-name="seven" horiz-adv-x="1504" d="M764 0H488V160Q488 370 545 623T689 1100T877 1533T1064 1884T1208 2096Q1279 2175 1300 2184L1296 2204Q1254 2192 1048 2192H312Q265 2192 241 2191T191 2184T155 2169T135 2141T122 2097T116
2032L104 1844H72L108 2396H1448V2232Q1420 2224 1370 2172T1257 2025T1127 1806T995 1518T879 1177T797 786T764 360V0Z" />
<glyph unicode="8" glyph-name="eight" horiz-adv-x="1800" d="M900 32Q1136 32 1278 211T1420 684Q1420 984 1278 1166T900 1348Q667 1348 524 1166T380 684Q380 552 421 431T533 223T699 84T900 32ZM900 1408Q1074 1408 1179 1540T1284 1892Q1284 2020 1233
2128T1093 2300T900 2364Q729 2364 625 2234T520 1892Q520 1673 624 1541T900 1408ZM900 -28Q724 -28 576 24T324 169T162 394T104 684Q104 814 150 935T274 1150T462 1305T692 1384V1388Q585 1408 493 1482T347 1667T292 1900Q292 2042 373 2162T595 2353T900
2424Q1175 2424 1343 2280T1512 1900Q1512 1716 1392 1567T1108 1388V1384Q1229 1368 1338 1306T1525 1150T1650 936T1696 684Q1696 540 1633 408T1463 181T1209 29T900 -28Z" />
<glyph unicode="9" glyph-name="nine" horiz-adv-x="1728" d="M840 2424Q1057 2424 1224 2284T1484 1888T1576 1300Q1576 1064 1539 857T1433 488T1268 211T1052 33T796 -28Q678 -28 565 -4T380 44T292 68V552H324V508Q337 441 358 380T417 253T506 140T631 63T796
32Q955 32 1074 198T1252 643T1312 1268H1296Q1221 1082 1082 983T784 884Q482 884 297 1099T112 1668Q112 1872 210 2046T475 2322T840 2424ZM840 2364Q718 2364 614 2271T449 2017T388 1668Q388 1471 444 1306T595 1044T804 948Q891 948 978 999T1135 1139T1250
1362T1296 1648Q1269 1986 1148 2175T840 2364Z" />
<glyph unicode=":" glyph-name="colon" horiz-adv-x="648" d="M328 268Q394 268 433 227T472 116Q472 49 434 9T328 -32Q261 -32 219 8T176 116Q176 183 218 225T328 268ZM328 1436Q394 1436 433 1397T472 1288Q472 1221 434 1181T328 1140Q261 1140 219 1180T176
1288Q176 1354 217 1395T328 1436Z" />
<glyph unicode=";" glyph-name="semicolon" horiz-adv-x="648" d="M328 1436Q394 1436 433 1397T472 1288Q472 1221 434 1181T328 1140Q261 1140 219 1180T176 1288Q176 1354 217 1395T328 1436ZM472 116Q472 -71 398 -185T200 -300V-240Q262 -240 310 -186T368
-72Q372 -41 392 -12L380 -8Q364 -32 328 -32Q256 -32 216 6T176 116T216 228T328 268Q393 268 432 226T472 116Z" />
<glyph unicode="&lt;" glyph-name="less" horiz-adv-x="1240" d="M1020 1844L1136 1724L388 1224Q359 1206 285 1156T173 1083T112 1056V1044Q122 1042 136 1037T169 1020T205 999T248 971T292 942T340 908T388 876L1136 376L1020 256L48 1032V1072L1020 1844Z" />
<glyph unicode="=" glyph-name="equal" horiz-adv-x="1536" d="M1408 1240H116L128 1328H1416L1408 1240ZM1408 768H116L128 856H1416L1408 768Z" />
<glyph unicode="&gt;" glyph-name="greater" horiz-adv-x="1240" d="M220 1844L1192 1072V1032L220 256L104 376L852 884Q886 906 952 951T1054 1018T1112 1044V1056Q1090 1060 1054 1081T952 1148T852 1216L104 1724L220 1844Z" />
<glyph unicode="?" glyph-name="question" horiz-adv-x="1340" d="M1236 2196Q1236 2104 1197 2007T1095 1825T956 1653T804 1482T666 1317T564 1149T524 980Q524 896 560 850T644 804Q682 804 709 835T736 920V972H768V920Q768 831 722 780T608 728Q531 728 474
797T416 996Q416 1084 458 1191T563 1396T700 1606T837 1813T942 2012T984 2196Q984 2415 880 2537T580 2660Q379 2660 274 2548T168 2224V2068H108V2700Q156 2692 192 2692Q243 2692 391 2712T576 2732Q870 2732 1053 2584T1236 2196ZM604 268Q670 268 711 227T752
116Q752 49 712 9T604 -32Q537 -32 497 8T456 116Q456 179 498 223T604 268Z" />
<glyph unicode="@" glyph-name="at" horiz-adv-x="2860" d="M2080 2120L2064 2004H2068L1948 912Q1936 804 1936 796Q1936 665 1980 591T2108 516Q2226 516 2332 586T2516 777T2638 1062T2684 1408Q2684 1625 2591 1822T2340 2163T1966 2391T1512 2476Q1331 2476
1158 2431T839 2303T570 2104T362 1848T228 1545T180 1208Q180 1034 222 868T341 560T527 301T767 99T1050 -30T1364 -76Q1571 -76 1775 -4T2096 192L2140 152Q2014 20 1798 -58T1364 -136Q1161 -136 971 -68T628 124T360 414T183 785T120 1208Q120 1389 170 1561T310
1879T528 2147T809 2355T1142 2488T1512 2536Q1679 2536 1839 2496T2134 2382T2383 2205T2576 1977T2699 1707T2744 1408Q2744 1214 2693 1038T2554 734T2347 531T2096 456Q1979 456 1892 555T1764 848H1740Q1708 773 1663 708T1557 582T1412 487T1236 452Q1130
452 1034 496T863 624T744 839T700 1132Q700 1262 729 1384T823 1618T979 1811T1205 1943T1500 1992Q1702 1992 1888 1896Q1961 1896 1991 1926T2036 2036L2044 2124L2080 2120ZM1812 1864Q1797 1871 1770 1881T1665 1910T1516 1928Q1398 1928 1300 1878T1137 1746T1026
1553T960 1326T940 1088Q940 834 1030 677T1264 520Q1401 520 1538 672T1728 1068L1812 1864Z" />
<glyph unicode="A" glyph-name="A" horiz-adv-x="2360" d="M28 0V32Q43 32 61 37T109 61T175 124T244 236L392 536L1128 2232Q1184 2361 1188 2412H1256L2108 236Q2127 188 2137 165T2162 113T2188 74T2217 50T2255 35T2304 32H2328V0H1676V32H1752Q1768 32 1783
35T1818 46T1850 74T1863 122Q1863 154 1848 192L1643 716H928L544 709L460 512L368 236Q352 193 352 152Q352 95 394 64T512 32H624V0H28ZM577 786L944 776H1620L1184 1892Q1152 1983 1152 2088H1132L577 786Z" />
<glyph unicode="B" glyph-name="B" horiz-adv-x="2032" d="M624 220Q624 60 716 60H948Q1258 60 1449 234T1640 692Q1640 889 1549 1046T1295 1292T928 1380H752V1440H884Q1104 1440 1248 1565T1392 1888Q1392 2092 1241 2214T840 2336H568V2332Q624 2276 624
2160V220ZM60 0V32H176Q219 32 244 37T291 63T323 113T341 206T350 343T352 540V1856Q352 1979 351 2053T342 2190T324 2282T292 2333T245 2359T176 2364H60V2396H884Q1239 2396 1457 2258T1676 1892Q1676 1819 1643 1744T1551 1604T1399 1490T1196 1428V1412Q1352
1400 1490 1334T1723 1168T1873 944T1928 692Q1928 539 1857 409T1662 190T1369 50T1008 0H60Z" />
<glyph unicode="C" glyph-name="C" horiz-adv-x="2172" d="M116 1208Q116 1373 157 1531T274 1822T456 2068T691 2258T970 2380T1280 2424Q1385 2424 1566 2394T1820 2364Q1904 2364 1968 2380L1992 1528H1932L1924 1816Q1921 1935 1862 2040T1708 2216T1494 2327T1252
2368Q1003 2368 812 2230T517 1841T412 1260Q412 1066 447 896T544 597T691 366T876 200T1084 102T1304 68Q1551 68 1745 177T2032 488L2088 468Q1992 227 1775 100T1284 -28Q938 -28 673 126T262 561T116 1208Z" />
<glyph unicode="D" glyph-name="D" horiz-adv-x="2388" d="M716 60H888Q1428 60 1712 352T1996 1200Q1996 1432 1911 1642T1682 2004T1337 2246T916 2336H568V2332Q599 2301 611 2267T624 2176V220Q624 60 716 60ZM60 0V32H176Q219 32 244 37T291 63T323 113T341
206T350 343T352 540V1856Q352 1979 351 2053T342 2190T324 2282T292 2333T245 2359T176 2364H60V2396H980Q1271 2396 1514 2310T1926 2069T2190 1690T2284 1200T2190 710T1927 330T1514 87T980 0H60Z" />
<glyph unicode="E" glyph-name="E" horiz-adv-x="1852" d="M1164 688H1120V872Q1120 965 1100 1031T1048 1135T967 1194T871 1222T760 1228H624V220Q624 141 648 101T716 60H1200Q1438 60 1554 169T1692 512L1716 776H1768L1724 32Q1692 0 1600 0H60V32H176Q208
32 229 34T271 47T302 71T324 114T338 177T346 267T351 386T352 540V1856Q352 1949 351 2010T347 2128T339 2219T324 2282T303 2325T271 2348T230 2361T176 2364H60V2396H1436Q1532 2396 1560 2368L1608 1620H1548L1532 1852Q1514 2111 1390 2223T1020 2336H552V2332Q624
2260 624 2160V1288H760Q805 1288 839 1290T913 1302T981 1326T1037 1367T1082 1430T1109 1520T1120 1640V1756H1164V688Z" />
<glyph unicode="F" glyph-name="F" horiz-adv-x="1696" d="M60 0V32H176Q208 32 229 34T271 47T302 71T324 114T338 177T346 267T351 386T352 540V1856Q352 1949 351 2010T347 2128T339 2219T324 2282T303 2325T271 2348T230 2361T176 2364H60V2396H1496Q1535
2396 1550 2391T1584 2368L1632 1620H1572L1556 1852Q1547 1979 1498 2074T1366 2225T1182 2308T956 2336H552V2332Q624 2260 624 2160V1168H744Q798 1168 841 1172T935 1188T1023 1224T1093 1286T1143 1383T1160 1520V1720H1204V616H1160V752Q1160 923 1053 1015T744
1108H624V540Q624 417 626 342T635 205T653 113T686 63T735 37T804 32H1020V0H60Z" />
<glyph unicode="G" glyph-name="G" horiz-adv-x="2336" d="M2060 -132H2032V100Q2029 164 1989 214T1896 264Q1848 264 1800 216Q1687 97 1534 35T1208 -28Q965 -28 761 61T414 312T192 703T112 1208Q112 1374 153 1531T267 1822T445 2068T675 2258T948 2380T1252
2424Q1369 2424 1539 2394T1784 2364Q1832 2364 1928 2380L1972 1528H1912L1900 1752Q1892 1893 1833 2010T1680 2204T1467 2322T1220 2364Q976 2364 790 2227T502 1840T400 1260Q400 928 510 645T809 197T1220 32Q1391 35 1540 104T1788 308V576Q1788 645 1787
693T1783 789T1775 868T1760 928T1739 975T1709 1007T1670 1030T1620 1043T1557 1050T1480 1052H1100V1112H2092Q2072 1048 2066 974T2060 780V-132Z" />
<glyph unicode="H" glyph-name="H" horiz-adv-x="2168" d="M60 0V32H176Q208 32 229 34T270 47T301 71T323 114T338 176T346 266T351 384T352 536V1856Q352 1979 351 2053T342 2190T324 2282T292 2333T245 2359T176 2364H60V2396H892V2364H804Q760 2364 734 2359T686
2333T653 2283T635 2190T626 2054T624 1856V1292H1540V1844Q1540 1971 1538 2046T1529 2185T1512 2280T1479 2332T1430 2359T1360 2364H1272V2396H2108V2364H1988Q1945 2364 1920 2359T1873 2333T1841 2281T1823 2186T1814 2046T1812 1844V540Q1812 417 1813 343T1822
206T1840 114T1872 63T1919 37T1988 32H2108V0H1272V32H1364Q1407 32 1432 37T1479 63T1511 113T1529 206T1538 343T1540 540V1232H624V536Q624 413 625 340T635 205T653 113T685 63T734 37T804 32H892V0H60Z" />
<glyph unicode="I" glyph-name="I" horiz-adv-x="976" d="M60 0V32H176Q219 32 244 37T291 63T323 113T341 206T350 343T352 540V1864Q352 1986 351 2058T342 2193T324 2284T292 2333T245 2359T176 2364H60V2396H916V2356H800Q757 2356 732 2351T685 2326T653
2276T635 2185T626 2051T624 1856V540Q624 417 625 343T634 206T652 114T684 63T731 37T800 32H916V0H60Z" />
<glyph unicode="J" glyph-name="J" horiz-adv-x="1376" d="M168 2396H1332V2364H1248Q1205 2364 1179 2359T1131 2334T1098 2284T1080 2192T1070 2054T1068 1856V524Q1068 275 915 120T524 -36Q332 -36 214 79T96 384H128Q128 220 228 134T512 48Q637 48 716 134T796
404V2268Q796 2307 801 2322T824 2356V2364H724Q486 2364 353 2253T196 1892L176 1668H124L168 2396Z" />
<glyph unicode="K" glyph-name="K" horiz-adv-x="2024" d="M60 0V32H176Q202 32 220 33T255 41T284 55T307 80T324 117T336 169T344 236T349 325T351 434T352 568V1856Q352 1979 351 2053T342 2190T324 2282T292 2333T245 2359T176 2364H60V2396H836V2364H808Q775
2364 753 2362T711 2349T678 2325T655 2282T639 2220T630 2129T625 2010T624 1856V1440Q721 1440 771 1450T844 1488L1240 1988L1352 2152Q1407 2230 1407 2279Q1407 2364 1252 2364H1228V2396H1964V2364H1952Q1844 2364 1714 2302T1472 2128L1284 1944L904 1468L908
1452Q1018 1428 1107 1383T1257 1286T1366 1156T1442 1013T1492 849T1525 686T1548 516Q1555 461 1559 430T1570 351T1585 276T1603 211T1627 153T1657 109T1696 73T1744 52T1804 44Q1884 44 1964 108L2008 144L2024 120L1984 88Q1830 -36 1712 -36Q1643 -36 1587
-16T1490 33T1417 116T1364 216T1323 341T1293 472T1268 616Q1251 721 1239 785T1202 943T1150 1094T1078 1218T977 1321T843 1383T668 1408H624V568Q624 470 625 405T630 279T639 184T655 118T677 73T710 48T753 35T808 32H924V0H60Z" />
<glyph unicode="L" glyph-name="L" horiz-adv-x="1728" d="M60 0V32H176Q208 32 229 34T271 48T302 73T324 118T338 184T346 279T351 402T352 564V1860Q352 1984 351 2056T342 2192T324 2284T292 2334T245 2359T176 2364H60V2396H924V2364H804Q772 2364 751 2362T709
2349T677 2325T655 2283T639 2221T630 2131T625 2013T624 1860V236Q624 136 552 64V60H1004Q1107 60 1183 69T1330 103T1447 170T1525 281T1564 444L1588 776H1656L1604 32Q1585 13 1568 7T1512 0H60Z" />
<glyph unicode="M" glyph-name="M" horiz-adv-x="2896" d="M32 0V32H64Q114 32 145 38T203 66T245 123T270 225T284 379T288 600V2192Q288 2234 285 2259T273 2307T246 2341T198 2358T124 2364H32V2396H496L1376 588Q1428 484 1428 444H1448Q1448 459 1463 505T1496
588L2356 2396H2868V2364H2768Q2717 2364 2683 2354T2629 2328T2599 2280T2587 2215T2584 2128V600Q2584 461 2586 379T2596 226T2617 123T2656 67T2713 38T2796 32H2868V0H1988V32H2108Q2158 32 2187 37T2242 64T2279 117T2299 215T2310 359T2312 568V1972Q2312
2084 2316 2120H2292Q2291 2117 2284 2099T2263 2048T2236 1984L1344 104L1336 80H1328L1320 104L408 1980Q394 2009 383 2042T368 2095T364 2120H352Q356 2088 356 2008V568Q356 442 359 360T372 215T396 118T437 64T495 38T576 32H680V0H32Z" />
<glyph unicode="N" glyph-name="N" horiz-adv-x="1960" d="M60 0V32H128Q197 32 237 69T300 220T324 540V2192Q324 2235 322 2260T312 2307T294 2338T261 2354T213 2362T144 2364H60V2396H576L1508 716Q1568 609 1568 592H1588Q1584 628 1584 732V1796Q1584 2108
1540 2236T1388 2364H1220V2396H1920V2364H1852Q1775 2364 1735 2323T1673 2158T1652 1796V-48H1616Q1616 -24 1520 144L472 2020Q456 2047 439 2079T413 2130T404 2152H388Q392 2116 392 2008V540Q392 261 436 147T588 32H656V0H60Z" />
<glyph unicode="O" glyph-name="O" horiz-adv-x="2576" d="M1288 -28Q1024 -28 803 61T429 309T190 698T104 1200Q104 1449 197 1675T449 2066T827 2327T1288 2424Q1551 2424 1771 2336T2146 2089T2386 1702T2472 1200Q2472 1001 2412 814T2243 475T1987 210T1661
34T1288 -28ZM1300 32Q1561 32 1761 169T2070 556T2180 1136Q2180 1335 2135 1522T2006 1861T1811 2126T1562 2302T1276 2364Q1015 2364 814 2227T503 1838T392 1260Q392 1061 438 874T568 535T764 270T1014 94T1300 32Z" />
<glyph unicode="P" glyph-name="P" horiz-adv-x="1932" d="M624 992H924Q1214 992 1391 1177T1568 1664Q1568 1800 1517 1923T1380 2136T1175 2279T924 2332H568V2316Q624 2243 624 2112V992ZM60 0V32H176Q208 32 229 34T271 47T302 71T324 114T338 177T346 267T351
386T352 540V1856Q352 1949 351 2010T347 2128T339 2219T324 2282T303 2325T271 2348T230 2361T176 2364H60V2396H1012Q1261 2396 1451 2305T1744 2048T1848 1664Q1848 1515 1782 1380T1603 1146T1336 990T1012 932H624V540Q624 417 626 342T635 205T653 113T686
63T735 37T804 32H888V0H60Z" />
<glyph unicode="Q" glyph-name="Q" horiz-adv-x="2612" d="M3720 -272Q3279 -756 2664 -756Q2401 -756 2127 -682T1524 -476Q1315 -390 1122 -343T680 -296V-244Q751 -244 840 -220T987 -172T1152 -100Q1241 -59 1320 -17T1510 98T1713 250T1899 440T2060 674T2166
953T2208 1284Q2208 1459 2162 1623T2031 1920T1834 2153T1582 2309T1296 2364Q1031 2364 829 2230T518 1850T408 1284Q408 1099 453 929T590 604T831 322T1176 108L1112 72Q918 138 757 234T478 448T278 700T156 983T116 1284Q116 1439 159 1586T280 1859T468
2089T710 2268T995 2383T1312 2424Q1576 2424 1797 2341T2171 2110T2410 1749T2496 1284Q2496 1144 2459 1010T2355 760T2194 534T1989 331T1748 152T1485 -5T1208 -140L968 -248Q1057 -251 1276 -299T1726 -403T2261 -505T2808 -552Q3427 -552 3700 -252L3720
-272Z" />
<glyph unicode="R" glyph-name="R" horiz-adv-x="2084" d="M60 0V32H176Q208 32 229 34T271 47T302 71T324 114T338 177T346 267T351 386T352 540V1856Q352 1949 351 2010T347 2128T339 2219T324 2282T303 2325T271 2348T230 2361T176 2364H60V2396H924Q1193 2396
1398 2308T1716 2059T1828 1688Q1828 1576 1787 1476T1675 1298T1509 1161T1305 1064T1080 1012L996 1000V980Q1047 975 1095 960T1182 926T1261 875T1330 815T1393 743T1448 668T1500 585T1547 504T1592 420Q1623 361 1657 308T1734 199T1824 110T1912 76Q1966
76 2012 116L2088 180L2104 156L2032 92Q1882 -36 1756 -36Q1706 -36 1658 -16T1572 35T1494 113T1426 203T1364 300Q1291 422 1246 496T1151 649T1069 771T1001 857T939 920T881 957T819 979T752 984H720V1040H872Q1053 1040 1207 1127T1450 1365T1540 1692Q1540
1823 1489 1942T1353 2148T1149 2285T900 2336H568V2332Q624 2276 624 2160V540Q624 417 626 342T635 205T653 113T686 63T735 37T804 32H1000V0H60Z" />
<glyph unicode="S" glyph-name="S" horiz-adv-x="1592" d="M100 816L160 820L172 632Q182 488 231 374T358 187T538 75T760 36Q985 36 1122 168T1260 520Q1260 580 1245 636T1206 739T1141 831T1062 913T966 990T863 1059T752 1128Q693 1163 655 1186T561 1247T468
1314T384 1386T307 1466T244 1553T194 1652T164 1761T152 1884Q152 2126 334 2275T812 2424Q906 2424 1041 2406T1236 2388Q1308 2388 1352 2396L1388 1704L1328 1700L1320 1840Q1315 1941 1281 2033T1185 2200T1028 2319T812 2364Q607 2364 496 2259T384 1956Q384
1876 415 1803T486 1678T606 1564T740 1468T896 1372Q974 1326 1024 1294T1146 1211T1264 1115T1361 1009T1442 883T1492 740T1512 572Q1512 303 1307 140T768 -24Q666 -24 487 4T252 32Q192 32 136 16L100 816Z" />
<glyph unicode="T" glyph-name="T" horiz-adv-x="1792" d="M328 0V32H584Q616 32 637 34T679 47T710 71T732 114T746 177T754 267T759 386T760 540V2336H652Q586 2336 533 2332T425 2317T329 2287T249 2240T185 2170T142 2075T120 1952L108 1816L48 1820L88 2396H1708L1744
1820L1684 1816L1672 1952Q1665 2046 1635 2115T1558 2226T1444 2293T1305 2327T1140 2336H1032V540Q1032 447 1033 386T1037 268T1045 177T1060 114T1081 71T1113 48T1154 35T1208 32H1452V0H328Z" />
<glyph unicode="U" glyph-name="U" horiz-adv-x="1948" d="M328 548V1856Q328 1979 326 2054T317 2191T299 2283T266 2333T217 2359T148 2364H60V2396H924V2364H776Q744 2364 723 2362T681 2349T650 2325T628 2282T614 2219T606 2129T601 2010T600 1856V460Q600
267 703 166T1004 64Q1270 64 1409 188T1548 548V1796Q1548 2109 1507 2236T1360 2364H1240V2396H1892V2364H1808Q1703 2364 1660 2236T1616 1796V548Q1616 269 1459 121T1004 -28Q703 -28 516 131T328 548Z" />
<glyph unicode="V" glyph-name="V" horiz-adv-x="2212" d="M1060 -12L272 2160Q224 2289 192 2326T80 2364H32V2396H512V2352Q512 2263 532 2208L1192 444Q1196 436 1202 396T1208 324H1232Q1232 367 1264 452L1768 1880L1840 2164Q1850 2209 1850 2239Q1850 2300
1809 2332T1672 2364H1624V2396H2188V2364H2176Q2111 2364 2063 2312T1972 2160L1844 1860L1176 -12H1060Z" />
<glyph unicode="W" glyph-name="W" horiz-adv-x="3376" d="M1544 2160Q1524 2224 1510 2258T1473 2319T1422 2355T1348 2364H1320V2396H2084V2364H1868Q1831 2364 1813 2336T1795 2265Q1795 2235 1804 2208L2328 448Q2352 368 2352 328H2388Q2388 334 2390 351T2401
399T2420 460L2924 1880L2992 2164Q3003 2206 3003 2240Q3003 2301 2962 2332T2824 2364H2776V2396H3352V2364H3336Q3270 2364 3224 2314T3136 2160L3008 1860L2328 -12H2192L1696 1652L1204 -12H1060L272 2160Q227 2281 208 2309Q178 2354 120 2362Q103 2364 80
2364H32V2396H512V2352Q512 2263 532 2208L1188 448Q1192 440 1198 400T1204 328H1232Q1232 338 1268 460L1658 1778L1544 2160Z" />
<glyph unicode="X" glyph-name="X" horiz-adv-x="1912" d="M572 516L464 268Q420 165 420 124Q420 28 564 28H640V0H60V28Q88 28 118 38T189 73T277 154T372 288L516 536L844 1180L412 2108Q341 2259 284 2311T152 2364H116V2396H688V2364H508V2356Q545 2344 596
2291T676 2176L1044 1388L1312 1884L1420 2128Q1463 2219 1463 2270Q1463 2364 1320 2364H1244V2396H1800V2364H1788Q1713 2364 1658 2313T1512 2108L1368 1860L1076 1320L1556 288Q1596 204 1619 161T1671 85T1728 42T1800 32H1856V0H1084V32H1152Q1248 32 1290
51T1332 112Q1332 132 1268 276L876 1112L572 516Z" />
<glyph unicode="Y" glyph-name="Y" horiz-adv-x="1916" d="M384 0V32H668Q700 32 721 34T763 47T794 71T816 114T830 177T838 267T843 386T844 540V1136L324 2136Q257 2265 214 2314T104 2364H32V2396H664V2364H456V2356Q487 2345 518 2302T592 2176L1024 1356Q1061
1281 1068 1248H1088Q1095 1281 1132 1356L1408 1888L1516 2128Q1560 2222 1560 2276Q1560 2364 1416 2364H1240V2396H1884V2364H1868Q1805 2364 1750 2313T1620 2132L1460 1860L1116 1188V540Q1116 447 1117 386T1121 268T1129 177T1144 114T1165 71T1197 48T1238
35T1292 32H1532V0H384Z" />
<glyph unicode="Z" glyph-name="Z" horiz-adv-x="1748" d="M16 0V32Q60 32 128 96T256 288L1128 2124Q1161 2199 1230 2255T1360 2328V2336H848Q258 2336 216 1952L208 1884L172 1888L196 2360Q214 2381 233 2388T292 2396H1640V2368Q1604 2368 1537 2302T1408
2108L536 280Q464 131 376 72V60H972Q1094 60 1198 80T1390 142T1531 256T1592 424L1604 544H1648L1620 36Q1596 12 1582 6T1532 0H16Z" />
<glyph unicode="[" glyph-name="bracketleft" horiz-adv-x="728" d="M104 -776V-760Q116 -658 116 -484V2736H704V2676H320V2672Q376 2616 376 2500V-536Q376 -652 320 -708V-716H704V-776H104Z" />
<glyph unicode="\" glyph-name="backslash" horiz-adv-x="1872" d="M1808 -756L1720 -800L60 2720L148 2764L1808 -756Z" />
<glyph unicode="]" glyph-name="bracketright" horiz-adv-x="728" d="M24 -776V-716H408V-708Q352 -652 352 -536V2500Q352 2616 408 2672V2676H24V2736H612V-484Q612 -658 624 -760V-776H24Z" />
<glyph unicode="^" glyph-name="asciicircum" horiz-adv-x="1240" d="M96 2160L616 2668H624L1144 2160L1036 2048L768 2356Q709 2425 670 2498T624 2612H616Q609 2572 570 2499T472 2356L204 2048L96 2160Z" />
<glyph unicode="_" glyph-name="underscore" horiz-adv-x="1360" d="M1360 -472H0V-384H1360V-472Z" />
<glyph unicode="`" glyph-name="grave" horiz-adv-x="588" d="M520 2156L112 2492L32 2592L108 2656Q122 2668 144 2668Q160 2668 176 2652L556 2192L520 2156Z" />
<glyph unicode="a" glyph-name="a" horiz-adv-x="1836" d="M124 388Q124 661 344 804T984 948H1264V1492Q1264 1707 1163 1817T868 1928Q631 1928 500 1802T356 1472L340 1272H280L316 1964Q364 1952 412 1952Q456 1952 607 1972T864 1992Q1188 1992 1360 1852T1532
1448V188Q1532 129 1558 103T1624 76Q1665 76 1692 106T1720 192V244H1752V192Q1752 106 1690 45T1540 -16Q1465 -16 1411 40T1352 180L1332 512H1300Q1274 394 1227 300T1120 146T989 45T846 -11T700 -28Q433 -28 279 86T124 388ZM392 388Q392 242 492 153T740
64Q815 64 888 88T1029 167T1150 300T1233 495T1264 752V888H1000Q706 888 549 760T392 388Z" />
<glyph unicode="b" glyph-name="b" horiz-adv-x="2280" d="M508 848Q508 658 564 506T714 259T924 114T1168 64Q1374 64 1531 170T1774 471T1860 920Q1860 1206 1777 1424T1540 1763T1184 1884Q974 1884 796 1773T508 1434V848ZM248 2604Q248 2652 222 2678T148
2704H-8V2732H180Q235 2732 285 2741T380 2770T453 2826T480 2912V2924H508V1572Q752 1992 1232 1992Q1501 1992 1708 1867T2030 1511T2144 980Q2144 816 2098 662T1967 385T1770 168T1519 23T1232 -28Q1076 -28 936 24T685 183T520 440Q501 491 475 520T422 550Q397
550 375 525T332 447T299 303T280 91L276 -8L232 -20L248 392V2604Z" />
<glyph unicode="c" glyph-name="c" horiz-adv-x="2124" d="M136 992Q136 1155 189 1307T341 1583T571 1798T864 1941T1200 1992Q1325 1992 1505 1960T1756 1928Q1798 1928 1888 1948L1912 1132H1852L1844 1400Q1839 1553 1740 1677T1489 1866T1172 1932Q952 1932
783 1823T521 1511T428 1044Q428 854 474 693T600 418T786 225T1012 106T1256 68Q1397 68 1525 110T1768 248T1952 488L2008 468Q1912 227 1695 100T1204 -28Q888 -28 645 99T269 459T136 992Z" />
<glyph unicode="d" glyph-name="d" horiz-adv-x="2320" d="M420 1044Q420 758 503 540T740 201T1096 80Q1235 80 1358 128T1590 284T1772 552V1120Q1772 1273 1736 1402T1637 1621T1490 1775T1312 1869T1116 1900Q910 1900 752 1794T507 1492T420 1044ZM136 984Q136
1148 182 1302T313 1579T510 1796T761 1941T1048 1992Q1205 1992 1345 1941T1596 1783T1760 1524L1772 1487V2604Q1772 2704 1676 2704H1516V2732H1708Q1762 2732 1812 2741T1906 2770T1977 2826T2004 2912V2924H2032V188Q2032 129 2058 103T2124 76Q2165 76 2192
106T2220 192V244H2252V192Q2252 105 2192 45T2044 -16Q1969 -16 1915 41T1856 180L1840 516H1831Q1719 256 1525 114T1048 -28Q779 -28 572 97T250 453T136 984Z" />
<glyph unicode="e" glyph-name="e" horiz-adv-x="2064" d="M136 992Q136 1155 187 1307T333 1583T552 1798T832 1941T1152 1992Q1504 1992 1716 1811T1928 1324Q1928 1261 1898 1223T1816 1184H433Q420 1089 420 976Q420 785 477 618T635 330T886 138T1212 68Q1415
68 1601 146T1904 384L1952 348Q1818 169 1610 71T1140 -28Q918 -28 731 46T413 254T209 577T136 992ZM443 1244L1596 1268Q1621 1268 1636 1283T1652 1328Q1652 1605 1511 1766T1136 1928Q868 1928 684 1745T443 1244Z" />
<glyph unicode="f" glyph-name="f" horiz-adv-x="1384" d="M60 0V32H200Q293 32 322 70T352 208V1840H60V1928H352Q333 1986 307 2128T280 2356Q280 2489 361 2589T582 2740T900 2792Q992 2792 1069 2778T1187 2746T1274 2715T1360 2700V2168H1300V2200Q1300 2323
1279 2417T1221 2569T1132 2663T1024 2714T900 2728Q718 2728 599 2625T480 2356Q480 2154 608 1928H1136V1840H612V124Q612 82 609 68T588 36V32H868V0H60Z" />
<glyph unicode="g" glyph-name="g" horiz-adv-x="2160" d="M428 1408Q428 1231 505 1081T717 844T1008 756Q1280 756 1448 913T1616 1324Q1616 1448 1568 1560T1437 1754T1243 1884T1008 1932Q747 1932 588 1789T428 1408ZM176 1364Q176 1491 242 1607T420 1807T686
1942T1008 1992Q1260 1992 1454 1915T1755 1700Q1755 1840 1818 1965T1988 2152L2044 2184Q2080 2133 2080 2084Q2080 2044 2062 2011T2012 1960Q1812 1842 1812 1674Q1812 1612 1832 1564Q1868 1471 1868 1364Q1868 1225 1804 1102T1626 889T1353 748T1008 696Q906
696 808 710V632Q808 554 829 498T884 411T975 361T1087 338T1224 332H1312Q1421 332 1519 319T1717 268T1889 174T2006 23T2052 -192Q2052 -341 1927 -471T1592 -679T1144 -756Q867 -756 643 -684T294 -486T168 -208Q168 -83 258 26T505 206T854 295Q740 423 740
632V722Q469 778 323 946T176 1364ZM914 239Q732 230 581 169T343 8T256 -208Q256 -301 367 -375T681 -490T1144 -532Q1368 -532 1562 -488T1874 -365T1992 -192Q1992 -78 1859 5T1520 88Q1107 88 914 239Z" />
<glyph unicode="h" glyph-name="h" horiz-adv-x="2104" d="M44 0V32H160Q192 32 213 34T255 47T286 71T308 114T322 177T330 267T335 386T336 540V2272Q336 2377 335 2441T330 2557T319 2635T301 2678T274 2700T236 2704H80V2732H272Q326 2732 376 2741T470 2770T541
2826T568 2912V2924H596V2172Q596 2029 581 1814T554 1475T536 1308H560Q575 1420 612 1524Q684 1737 850 1864T1224 1992Q1490 1992 1637 1856T1784 1488V540Q1784 447 1785 386T1789 268T1797 177T1812 114T1833 71T1865 48T1906 35T1960 32H2080V0H1232V32H1348Q1380
32 1401 34T1443 47T1474 71T1496 114T1510 177T1518 267T1523 386T1524 540V1396Q1524 1648 1446 1774T1196 1900Q1069 1900 959 1844T769 1688T642 1441T596 1120V540Q596 417 598 342T607 205T625 113T658 63T707 37T776 32H892V0H44Z" />
<glyph unicode="i" glyph-name="i" horiz-adv-x="964" d="M484 2632Q551 2632 591 2594T632 2488Q632 2421 592 2379T484 2336Q417 2336 375 2378T332 2488Q332 2554 373 2593T484 2632ZM352 536V1812Q352 1866 323 1899T244 1932H120V1964H572Q594 1964 603 1955T612
1924V536Q612 445 613 383T618 265T627 176T642 114T664 71T696 47T738 35T792 32H912V0H60V32H176Q219 32 244 36T292 62T324 112T341 204T350 339T352 536Z" />
<glyph unicode="j" glyph-name="j" horiz-adv-x="892" d="M484 2632Q551 2632 591 2594T632 2488Q632 2421 592 2379T484 2336Q417 2336 375 2378T332 2488Q332 2554 373 2593T484 2632ZM352 1812Q352 1866 323 1899T244 1932H120V1964H572Q594 1964 603 1955T612
1924V-192Q612 -442 465 -599T88 -756Q-105 -756 -222 -642T-340 -340H-312Q-312 -502 -202 -599T88 -696Q217 -696 284 -607T352 -344V1812Z" />
<glyph unicode="k" glyph-name="k" horiz-adv-x="2024" d="M336 536V2604Q336 2652 310 2678T236 2704H80V2732H272Q544 2732 584 2892L592 2924H616L596 2352V1072Q693 1072 743 1082T816 1120L1196 1552L1320 1716Q1377 1790 1377 1843Q1377 1932 1216 1932H1200V1964H1936V1932H1908Q1800
1932 1670 1870T1428 1696L1240 1512L880 1100V1088Q987 1064 1073 1030T1219 958T1324 871T1397 777T1443 672T1471 566T1488 456Q1501 350 1518 279T1568 152T1650 70T1772 44Q1856 44 1936 108L1980 144L1996 120L1956 88Q1802 -36 1684 -36Q1590 -36 1517 -11T1394
59T1307 174T1246 325T1204 512Q1195 566 1189 599T1169 683T1141 766T1104 840T1052 908T983 963T893 1007T780 1033T640 1044H596V536Q596 445 597 383T602 265T611 176T626 114T648 71T680 47T722 35T776 32H892V0H44V32H160Q203 32 228 36T276 62T308 112T325
204T334 339T336 536Z" />
<glyph unicode="l" glyph-name="l" horiz-adv-x="964" d="M56 0V32H172Q204 32 225 34T267 47T299 71T321 113T337 175T346 265T351 383T352 536V2604Q352 2652 326 2678T252 2704H96V2732H288Q343 2732 393 2741T488 2770T561 2826T588 2912V2924H612V536Q612
445 613 383T618 265T627 176T642 114T664 71T696 47T738 35T792 32H912V0H56Z" />
<glyph unicode="m" glyph-name="m" horiz-adv-x="2972" d="M60 0V32H176Q208 32 229 34T271 47T302 71T324 114T338 177T346 267T351 386T352 540V1768Q352 1827 326 1857T260 1887Q220 1887 192 1855T164 1768V1644H132V1768Q132 1866 197 1921T356 1976Q439
1976 493 1931T548 1800V1656Q548 1416 540 1352H568Q580 1464 624 1580Q782 1992 1152 1992Q1278 1992 1366 1959T1503 1864T1571 1727T1592 1552V1352H1608Q1613 1427 1642 1529T1688 1660Q1774 1823 1892 1907T2184 1992Q2406 1992 2543 1876T2680 1548V540Q2680
417 2682 342T2691 205T2709 113T2742 63T2791 37T2860 32H2948V0H2208V32H2240Q2283 32 2309 37T2357 62T2390 112T2408 204T2418 342T2420 540V1484Q2420 1682 2345 1791T2152 1900Q2002 1900 1887 1807T1710 1546T1648 1164V540Q1648 417 1650 342T1659 205T1677
113T1710 63T1759 37T1828 32H1912V0H1176V32H1208Q1251 32 1277 37T1325 62T1358 112T1376 204T1386 342T1388 540V1484Q1388 1682 1313 1791T1120 1900Q970 1900 854 1807T675 1546T612 1164V540Q612 417 614 342T623 205T641 113T674 63T723 37T792 32H912V0H60Z"
/>
<glyph unicode="n" glyph-name="n" horiz-adv-x="2088" d="M60 0V32H176Q208 32 229 34T271 47T302 71T324 114T338 177T346 267T351 386T352 540V1768Q352 1827 326 1857T260 1887Q220 1887 192 1855T164 1768V1644H132V1768Q132 1866 197 1921T356 1976Q440
1976 500 1930T560 1800V1656Q560 1602 558 1466T552 1308H576Q589 1402 632 1524Q704 1738 869 1865T1240 1992Q1506 1992 1653 1856T1800 1488V540Q1800 447 1801 386T1805 268T1813 177T1828 114T1849 71T1881 48T1922 35T1976 32H2064V0H1248V32H1364Q1396
32 1417 34T1459 47T1490 71T1512 114T1526 177T1534 267T1539 386T1540 540V1396Q1540 1648 1462 1774T1212 1900Q1085 1900 975 1844T785 1688T658 1441T612 1120V540Q612 417 614 342T623 205T641 113T674 63T723 37T792 32H912V0H60Z" />
<glyph unicode="o" glyph-name="o" horiz-adv-x="2416" d="M1208 -28Q970 -28 770 45T431 250T214 570T136 984Q136 1147 190 1301T345 1579T576 1796T871 1941T1208 1992Q1446 1992 1646 1919T1985 1715T2202 1396T2280 984Q2280 779 2195 592T1967 269T1625
53T1208 -28ZM1216 32Q1446 32 1623 143T1898 459T1996 928Q1996 1199 1888 1429T1595 1793T1192 1928Q962 1928 787 1818T516 1504T420 1036Q420 833 483 648T652 327T906 112T1216 32Z" />
<glyph unicode="p" glyph-name="p" horiz-adv-x="2384" d="M352 1768Q352 1827 326 1857T260 1887Q220 1887 192 1855T164 1768V1644H132V1768Q132 1866 197 1921T356 1976Q440 1976 500 1930T560 1800V1656Q560 1602 558 1466T552 1308H576Q589 1402 632 1524Q682
1675 791 1782T1040 1941T1336 1992Q1513 1992 1663 1935T1920 1781T2101 1554T2212 1279T2248 980T2212 682T2101 407T1920 182T1664 29T1336 -28Q1179 -28 1041 23T794 181T632 440L612 502V-192Q612 -315 614 -390T623 -528T641 -621T674 -673T723 -699T792
-704H912V-732H60V-704H176Q219 -704 245 -699T292 -673T324 -622T341 -528T350 -391T352 -192V1768ZM612 844Q612 691 649 562T749 343T896 188T1076 94T1272 64Q1408 64 1522 109T1716 233T1853 420T1937 654T1964 920Q1964 1036 1945 1152T1888 1378T1792 1582T1658
1748T1484 1859T1272 1900Q1171 1900 1076 1870T897 1776T749 1622T649 1402T612 1120V844Z" />
<glyph unicode="q" glyph-name="q" horiz-adv-x="2288" d="M136 984Q136 1148 182 1302T313 1579T510 1796T761 1941T1048 1992Q1212 1992 1362 1933T1622 1761Q1677 1705 1722 1641T1788 1537T1831 1470T1874 1443Q1923 1443 1955 1522T1988 1764V1984H2036V-556Q2036
-615 2062 -641T2128 -668Q2169 -668 2196 -638T2224 -552V-312H2256V-552Q2256 -648 2182 -702T2008 -756H1828Q1805 -756 1789 -739T1772 -696V392Q1528 -28 1048 -28Q779 -28 572 97T250 453T136 984ZM420 1044Q420 758 503 540T740 201T1096 80Q1306 80 1484
191T1772 530V1112Q1772 1302 1717 1455T1568 1703T1359 1849T1116 1900Q910 1900 752 1794T507 1492T420 1044Z" />
<glyph unicode="r" glyph-name="r" horiz-adv-x="1484" d="M60 0V32H176Q208 32 229 34T271 47T302 71T324 114T338 177T346 267T351 386T352 540V1812Q352 1866 323 1899T244 1932H120V1964H524Q557 1964 570 1951T584 1904V1656Q584 1570 576 1479T556 1352V1344H584Q650
1651 810 1821T1188 1992Q1472 1992 1472 1804Q1472 1731 1424 1680T1308 1628Q1237 1628 1187 1678T1136 1800Q1136 1825 1147 1856T1176 1904V1908Q1010 1908 882 1792T683 1462T612 972V536Q612 413 614 338T623 201T641 109T674 59T723 33T792 28H1004V0H60Z"
/>
<glyph unicode="s" glyph-name="s" horiz-adv-x="1692" d="M812 -28Q712 -28 613 -11T434 23T304 40Q258 40 188 20L148 832H208L220 600Q227 465 276 357T406 178T590 70T812 32Q1034 32 1171 158T1308 488Q1308 540 1291 585T1236 670T1159 740T1056 803T943
858T816 912Q755 937 718 953T621 996T525 1045T438 1097T358 1156T293 1223T240 1300T209 1386T196 1484Q196 1642 283 1758T522 1933T868 1992Q1004 1992 1135 1970T1292 1948Q1345 1948 1404 1964L1436 1272H1376L1368 1408Q1363 1485 1342 1558T1280 1698T1182
1816T1044 1897T868 1928Q661 1928 545 1838T428 1556Q428 1525 437 1495T460 1441T500 1391T549 1347T611 1305T679 1268T755 1231T833 1198T916 1164Q995 1132 1048 1109T1175 1048T1298 976T1401 894T1486 795T1539 681T1560 544Q1560 289 1354 131T812 -28Z"
/>
<glyph unicode="t" glyph-name="t" horiz-adv-x="1528" d="M432 488V1852H32V1936H224Q296 1936 359 1966T464 2043T540 2146T591 2258T619 2357T628 2424V2796H688V2108Q688 1985 648 1968V1964H1436L1416 1852H688V432Q688 268 764 168T964 68Q1128 68 1220
174T1312 460V560H1372V460Q1372 240 1255 106T944 -28Q714 -28 573 114T432 488Z" />
<glyph unicode="u" glyph-name="u" horiz-adv-x="2056" d="M300 476V1812Q300 1866 271 1899T192 1932H68V1964H500Q533 1964 546 1951T560 1904V508Q560 280 650 156T888 32Q1066 32 1201 138T1410 437T1484 884V1756Q1484 1799 1482 1825T1473 1872T1455 1904T1422
1922T1374 1930T1304 1932H1244V1964L1768 1976V1952Q1752 1832 1752 1772V188Q1752 129 1778 103T1844 76Q1885 76 1912 106T1940 192V244H1972V192Q1972 99 1904 42T1748 -16Q1667 -16 1610 35T1552 180V652H1524Q1498 477 1435 344T1282 131T1086 12T860 -28Q607
-28 454 104T300 476Z" />
<glyph unicode="v" glyph-name="v" horiz-adv-x="2036" d="M980 -16L276 1728Q227 1853 193 1892T80 1932H32V1964H688V1932H432V1928Q478 1911 536 1772L1088 452Q1112 380 1112 332H1156Q1156 375 1192 464L1588 1451L1660 1732Q1671 1774 1671 1807Q1671 1867
1630 1899T1492 1932H1336V1964H2008V1932H1996Q1931 1932 1883 1881T1792 1728L1664 1430L1080 -16H980Z" />
<glyph unicode="w" glyph-name="w" horiz-adv-x="3020" d="M932 -16L272 1728Q224 1857 192 1894T80 1932H32V1964H512V1916Q512 1823 532 1772L1040 488Q1047 469 1053 424T1060 352H1096Q1096 377 1124 472L1480 1649L1456 1728Q1436 1792 1422 1826T1385 1887T1334
1923T1260 1932H1184V1964H1948V1932H1780Q1745 1932 1725 1907T1705 1838Q1705 1810 1716 1772L2108 472Q2128 402 2128 352H2164Q2164 373 2204 480L2580 1462L2644 1732Q2655 1779 2655 1811Q2655 1872 2615 1902T2480 1932H2420V1964H2992V1932H2972Q2940 1932
2915 1922T2872 1897T2835 1853T2804 1798T2772 1728L2647 1443L2092 -12L1980 -16L1519 1521L1056 -16H932Z" />
<glyph unicode="x" glyph-name="x" horiz-adv-x="1812" d="M24 0V32H44Q217 32 384 288L544 536L796 972L416 1672Q335 1822 274 1877T140 1932H92V1964H684V1932H508V1928Q543 1916 593 1861T676 1744L992 1152L1176 1452L1308 1692Q1352 1769 1352 1840Q1352
1932 1208 1932H1144V1964H1732V1932H1692Q1619 1932 1561 1879T1400 1672L1232 1428L1028 1088L1456 288Q1536 137 1592 85T1732 32H1788V0H988V32H1056Q1151 32 1191 51T1232 112Q1232 132 1168 276L828 908L600 512L472 272Q432 198 432 124Q432 32 572 32H652V0H24Z"
/>
<glyph unicode="y" glyph-name="y" horiz-adv-x="1968" d="M964 -20Q983 28 983 77Q983 124 964 168L288 1728Q269 1774 259 1796T233 1847T206 1888T176 1912T137 1928T88 1932H36V1964H680V1932H444V1928Q464 1921 486 1891T521 1836T552 1768L1088 544Q1112
486 1112 404V396H1124L1540 1456L1620 1728Q1637 1780 1637 1823Q1637 1881 1598 1906T1472 1932H1360V1964H1940V1936Q1872 1936 1832 1890T1740 1724L1612 1436L904 -360Q835 -537 718 -646T460 -756Q355 -756 282 -665T208 -444Q293 -483 355 -501T488 -520Q547
-520 597 -510T698 -474T792 -397T864 -272L964 -20Z" />
<glyph unicode="z" glyph-name="z" horiz-adv-x="1664" d="M0 0V32Q39 32 103 96T240 288L1040 1688Q1085 1769 1144 1823T1264 1892V1904H768Q516 1904 386 1817T232 1516L224 1452H180L204 1932Q218 1952 236 1958T292 1964H1556V1932Q1526 1932 1461 1861T1328
1672L528 280Q433 115 368 72V60H956Q1479 60 1512 424L1520 544H1568L1536 32Q1528 0 1456 0H0Z" />
<glyph unicode="{" glyph-name="braceleft" horiz-adv-x="916" d="M125 976L152 968Q187 947 224 923T314 861T410 784T494 699T557 607T580 516Q580 454 504 62T428 -432Q428 -561 502 -638T712 -716H888V-776H592Q428 -776 322 -646T216 -304Q216 -208 284 140T352
572Q352 636 330 690T259 793T156 882T16 976V984Q103 1039 156 1078T258 1166T330 1270T352 1388Q352 1472 284 1820T216 2264Q216 2475 322 2605T592 2736H888V2676H712Q577 2676 503 2599T428 2392Q428 2290 504 1898T580 1444Q580 1401 557 1354T494 1262T410
1177T314 1099T225 1038T152 992L125 984V976Z" />
<glyph unicode="|" glyph-name="bar" horiz-adv-x="500" d="M176 2604H328V-768H176V2604Z" />
<glyph unicode="}" glyph-name="braceright" horiz-adv-x="916" d="M791 976V984L764 992Q729 1013 692 1037T602 1099T506 1176T422 1261T359 1353T336 1444Q336 1506 412 1898T488 2392Q488 2521 414 2598T204 2676H28V2736H324Q488 2736 594 2606T700 2264Q700
2168 632 1820T564 1388Q564 1324 586 1270T657 1167T760 1078T900 984V976Q813 921 760 882T658 794T586 690T564 572Q564 488 632 140T700 -304Q700 -515 594 -645T324 -776H28V-716H204Q339 -716 413 -639T488 -432Q488 -330 412 62T336 516Q336 559 359 606T422
698T506 783T602 861T691 922T764 968L791 976Z" />
<glyph unicode="~" glyph-name="asciitilde" horiz-adv-x="1536" d="M1456 1360L1416 1188Q1359 944 1156 944Q1082 944 985 973T795 1045T612 1130T439 1202T300 1232Q206 1232 180 1116L140 940L80 952L120 1128Q144 1232 207 1292T368 1352Q455 1352 582 1308T817
1210T1042 1113T1228 1068Q1332 1068 1360 1200L1400 1372L1456 1360Z" />
</font>
</defs>
</svg>
