<svg xmlns="http://www.w3.org/2000/svg" viewBox="0 0 500 500">
	<style type="text/css">
		.st0 {
			fill: #1f1f1f;
		}
		@media (prefers-color-scheme: dark) {
			.st0 {
				fill: #ffffff;
			}
		}
	</style>
	<path class="st0" d="M475.1,71.4c-6.2,3.1-9.3,6.2-9.3,12.4c-3.1,6.2-3.1,15.5-3.1,31.1V385c0,12.4,0,24.8,3.1,31.1
		c3.1,6.2,6.2,9.3,9.3,12.4c6.2,3.1,12.4,3.1,24.8,3.1V444c-21.7,0-55.9-3.1-96.3-3.1c-43.5,0-77.6,0-96.3,3.1v-12.4
		c12.4,0,21.7-3.1,28-3.1c6.2-3.1,9.3-6.2,12.4-12.4c3.1-6.2,3.1-15.5,3.1-31.1V105.5L217.3,444H208L52.7,93.1v245.3
		c0,28,0,46.6,3.1,59c3.1,9.3,9.3,18.6,15.5,24.8s18.6,9.3,37.3,12.4v12.4c-15.5,0-34.2-3.1-62.1-3.1c-18.6,0-34.2,0-46.6,3.1v-12.4
		c12.4-3.1,18.6-6.2,24.8-12.4s9.3-12.4,12.4-24.8c3.1-12.4,3.1-28,3.1-49.7V114.9c0-12.4,0-24.8-3.1-31.1c0-3.1-3.1-9.3-9.3-12.4
		c-6.2,0-12.4-3.1-24.8-3.1V59c12.4,0,24.8,3.1,46.6,3.1c43.5,0,80.7,0,114.9-3.1L267,291.9l90.1-229.8h46.6c43.5,0,74.5,0,96.3-3.1
		v12.4C487.5,68.3,478.2,71.4,475.1,71.4z"/>
</svg>
