<?xml version="1.0" encoding="utf-8"?>
<!-- Generator: Adobe Illustrator 22.0.0, SVG Export Plug-In . SVG Version: 6.00 Build 0)  -->
<svg version="1.1" id="Layer_1" xmlns="http://www.w3.org/2000/svg" xmlns:xlink="http://www.w3.org/1999/xlink" x="0px" y="0px"
	 width="64px" height="64px" viewBox="0 0 64 64" style="enable-background:new 0 0 64 64;" xml:space="preserve">
<style type="text/css">
	.st0{opacity:0.6;enable-background:new    ;}
	.st1{fill:#ffffff;}
</style>
<ellipse class="st0" cx="32.5" cy="59.6" rx="13.9" ry="4.4"/>
<path class="st1" d="M46,5.5C42.2,1.7,37.8,0,32.5,0S22.8,1.9,19,5.5c-3.7,3.6-5.5,8.1-5.5,13.5c0,4.4,1.7,10.1,5.2,17.3
	s6.3,12.3,8.4,15.2c2.1,3.1,3.9,5.5,5.2,7.5l4.8-6.7c3.2-4.5,6.3-10,9.5-16.7c3.2-6.7,4.8-12.1,4.8-16.5C51.4,13.7,49.6,9.2,46,5.5z
	 M42.4,28.8c-2.7,2.7-6,4-9.9,4c-4,0-7.2-1.3-9.9-4c-2.7-2.7-4-6-4-9.9c0-3.9,1.3-7.2,4-9.9c2.7-2.7,6-4,9.9-4s7.2,1.3,9.9,4
	c2.7,2.7,4,6,4,9.9C46.4,22.9,45,26.1,42.4,28.8z M38.5,25c-1.6,1.6-3.7,2.5-6,2.5c-2.5,0-4.4-0.8-6-2.5c-1.6-1.6-2.5-3.7-2.5-6
	s0.8-4.4,2.5-6s3.7-2.5,6-2.5c2.4,0,4.4,0.8,6,2.5s2.5,3.7,2.5,6C41,21.4,40.2,23.3,38.5,25z"/>
</svg>
