<?xml version="1.0" encoding="utf-8"?>
<!-- Generator: Adobe Illustrator 22.0.0, SVG Export Plug-In . SVG Version: 6.00 Build 0)  -->
<svg version="1.1" id="Layer_1" xmlns="http://www.w3.org/2000/svg" xmlns:xlink="http://www.w3.org/1999/xlink" x="0px" y="0px"
	 width="117px" height="78px" viewBox="0 0 117 78" style="enable-background:new 0 0 117 78;" xml:space="preserve">
<style type="text/css">
	.st0{fill:#191919;}
</style>
<path class="st0" d="M31.4,10c-0.3,0.1-0.5,0.4-0.6,0.7c-0.1,0.3-0.2,0.9-0.2,1.6v14.5c0,0.7,0,1.3,0.2,1.6c0.1,0.3,0.3,0.6,0.6,0.7
	c0.3,0.1,0.7,0.2,1.3,0.2v0.6c-1.2-0.1-2.9-0.1-5.2-0.1c-2.3,0-4.1,0-5.2,0.1v-0.6c0.7,0,1.2-0.1,1.5-0.2c0.3-0.1,0.5-0.4,0.7-0.7
	c0.1-0.3,0.2-0.9,0.2-1.6v-15l-7,18h-0.5L9,11.1v13.1c0,1.4,0.1,2.5,0.2,3.1c0.1,0.6,0.4,1.1,0.8,1.4c0.4,0.3,1.1,0.5,2,0.6v0.6
	c-0.8-0.1-1.9-0.1-3.3-0.1c-1,0-1.8,0-2.4,0.1v-0.6c0.6-0.1,1.1-0.3,1.3-0.6s0.5-0.7,0.6-1.3c0.1-0.6,0.1-1.5,0.1-2.6V12.3
	c0-0.7-0.1-1.3-0.2-1.6S7.9,10.1,7.6,10C7.3,9.9,6.9,9.8,6.2,9.8V9.2c0.6,0.1,1.4,0.1,2.4,0.1c2.3,0,4.4,0,6.1-0.1l5.5,12.4L25,9.3
	h2.5c2.3,0,4,0,5.2-0.1v0.6C32.1,9.8,31.7,9.9,31.4,10z M62.2,10c-0.3,0.1-0.5,0.4-0.6,0.7c-0.1,0.3-0.2,0.9-0.2,1.6v14.5
	c0,0.7,0.1,1.3,0.2,1.6c0.1,0.3,0.3,0.6,0.6,0.7c0.3,0.1,0.7,0.2,1.3,0.2v0.6c-1.1-0.1-2.8-0.1-4.9-0.1c-2.4,0-4.1,0-5.2,0.1v-0.6
	c0.6,0,1.1-0.1,1.4-0.2c0.3-0.1,0.5-0.4,0.6-0.7c0.1-0.3,0.1-0.9,0.1-1.6V12.3c0-0.7-0.1-1.3-0.2-1.6c-0.1-0.3-0.3-0.6-0.6-0.7
	c-0.3-0.1-0.7-0.2-1.3-0.2V9.2c1.1,0.1,2.8,0.1,5.2,0.1c2.1,0,3.7,0,4.9-0.1v0.6C62.9,9.8,62.4,9.9,62.2,10z M23.2,49.5
	c-0.3,0.1-0.5,0.4-0.6,0.7c-0.1,0.3-0.2,0.9-0.2,1.6v14.5c0,0.7,0.1,1.3,0.2,1.6c0.1,0.3,0.3,0.6,0.6,0.7c0.3,0.1,0.7,0.2,1.3,0.2
	v0.6c-1.1-0.1-2.8-0.1-4.9-0.1c-2.4,0-4.1,0-5.2,0.1v-0.6c0.6,0,1.1-0.1,1.4-0.2c0.3-0.1,0.5-0.4,0.6-0.7c0.1-0.3,0.1-0.9,0.1-1.6
	V51.8c0-0.7-0.1-1.3-0.2-1.6c-0.1-0.3-0.3-0.6-0.6-0.7c-0.3-0.1-0.7-0.2-1.3-0.2v-0.6c1.1,0.1,2.8,0.1,5.2,0.1c2.1,0,3.7,0,4.9-0.1
	v0.6C23.9,49.3,23.5,49.4,23.2,49.5z M64.3,49.6c1.7,0.8,2.9,2.1,3.9,3.6c0.9,1.6,1.4,3.5,1.4,5.7c0,2.1-0.5,4.1-1.4,5.7
	c-0.9,1.7-2.2,2.9-3.9,3.9c-1.7,0.9-3.6,1.4-5.7,1.4c-2.2,0-4.1-0.4-5.8-1.3c-1.7-0.8-2.9-2.1-3.9-3.6c-0.9-1.6-1.4-3.5-1.4-5.7
	c0-2.1,0.5-4.1,1.4-5.7c0.9-1.7,2.2-2.9,3.9-3.9c1.7-0.9,3.6-1.4,5.7-1.4C60.7,48.3,62.6,48.7,64.3,49.6z M55.9,50.1
	c-0.7,0.9-1.3,2.1-1.7,3.6c-0.4,1.6-0.6,3.3-0.6,5.3c0,2,0.2,3.8,0.7,5.3s1.1,2.7,1.8,3.6c0.8,0.8,1.6,1.3,2.5,1.3
	c1,0,1.8-0.4,2.5-1.3c0.7-0.9,1.3-2.1,1.7-3.6c0.4-1.6,0.6-3.3,0.6-5.3c0-2-0.2-3.8-0.7-5.3c-0.4-1.5-1.1-2.7-1.8-3.6
	c-0.8-0.8-1.6-1.3-2.5-1.3C57.4,48.8,56.6,49.3,55.9,50.1z M107.5,28.7c0.2,0.2,0.3,0.3,0.5,0.4c0.2,0.1,0.4,0.1,0.6,0.2v0.6
	c-2.5-0.1-4.2-0.1-5-0.1c-0.8,0-2.5,0-5.1,0.1v-0.6c0.6,0,1.1,0,1.4-0.1c0.3-0.1,0.4-0.2,0.4-0.4c0-0.1-0.1-0.3-0.2-0.5l-4.9-7
	l-1.8,2.2c-1,1.2-1.5,2.4-1.5,3.4c0,0.7,0.2,1.2,0.7,1.6c0.4,0.4,1,0.6,1.8,0.7v0.6c-1.1-0.1-2.8-0.1-5.1-0.1c-1.2,0-2.2,0-2.8,0.1
	v-0.6c1.5-0.6,3.1-2,4.9-4.2l3.5-4.4l-6.7-9.5c-0.3-0.4-0.5-0.7-0.7-0.9c-0.2-0.2-0.3-0.3-0.5-0.4c-0.2-0.1-0.4-0.1-0.6-0.2V9.2
	c2.7,0.1,4.5,0.1,5.3,0.1c0.7,0,2.3,0,4.7-0.1v0.6c-0.6,0-1.1,0-1.4,0.1c-0.3,0.1-0.4,0.2-0.4,0.4c0,0.1,0.1,0.3,0.2,0.5l4.2,6
	l1.7-2.1c1-1.1,1.5-2.2,1.5-3.1c0-0.5-0.2-1-0.5-1.3c-0.4-0.3-0.9-0.5-1.5-0.6V9.2c1.1,0.1,2.4,0.1,3.9,0.1c1.2,0,2.2,0,2.8-0.1v0.6
	c-0.6,0.2-1.3,0.6-2,1.3c-0.7,0.6-1.3,1.3-2,2l-3.5,4.3l7.4,10.5C107.1,28.2,107.3,28.5,107.5,28.7z"/>
</svg>
