<?xml version="1.0" encoding="utf-8"?>
<!-- Generator: Adobe Illustrator 22.0.0, SVG Export Plug-In . SVG Version: 6.00 Build 0)  -->
<svg version="1.1" id="Layer_1" xmlns="http://www.w3.org/2000/svg" xmlns:xlink="http://www.w3.org/1999/xlink" x="0px" y="0px"
	 width="72px" height="48px" viewBox="0 0 72 48" style="enable-background:new 0 0 72 48;" xml:space="preserve">
<style type="text/css">
	.st0{fill:#FFFFFF;}
</style>
<path class="st0" d="M19.3,6.2C19.1,6.2,19,6.4,19,6.6c-0.1,0.2-0.1,0.5-0.1,1v8.9c0,0.5,0,0.8,0.1,1c0.1,0.2,0.2,0.3,0.4,0.4
	c0.2,0.1,0.4,0.1,0.8,0.1v0.4c-0.7,0-1.8-0.1-3.2-0.1c-1.4,0-2.5,0-3.2,0.1v-0.4c0.4,0,0.7-0.1,0.9-0.1s0.3-0.2,0.4-0.4
	s0.1-0.5,0.1-1V7.3l-4.3,11.1h-0.3L5.5,6.8v8.1c0,0.9,0,1.5,0.1,1.9s0.2,0.7,0.5,0.9c0.2,0.2,0.7,0.3,1.2,0.4v0.4
	c-0.5,0-1.2-0.1-2-0.1c-0.6,0-1.1,0-1.5,0.1v-0.4c0.4-0.1,0.7-0.2,0.8-0.4s0.3-0.4,0.4-0.8c0.1-0.4,0.1-0.9,0.1-1.6V7.6
	c0-0.5,0-0.8-0.1-1S4.8,6.2,4.6,6.2S4.2,6.1,3.8,6V5.7c0.4,0,0.9,0.1,1.5,0.1c1.4,0,2.7,0,3.7-0.1l3.4,7.6l3-7.6H17
	c1.4,0,2.5,0,3.2-0.1V6C19.8,6.1,19.5,6.1,19.3,6.2z M38.3,6.2c-0.2,0.1-0.3,0.2-0.4,0.4c-0.1,0.2-0.1,0.5-0.1,1v8.9
	c0,0.5,0,0.8,0.1,1s0.2,0.3,0.4,0.4s0.5,0.1,0.8,0.1v0.4c-0.7,0-1.7-0.1-3-0.1c-1.5,0-2.5,0-3.2,0.1v-0.4c0.4,0,0.7-0.1,0.8-0.1
	c0.2-0.1,0.3-0.2,0.4-0.4c0.1-0.2,0.1-0.5,0.1-1V7.6c0-0.5,0-0.8-0.1-1s-0.2-0.3-0.4-0.4S33.3,6.1,32.9,6V5.7c0.7,0,1.8,0.1,3.2,0.1
	c1.3,0,2.3,0,3-0.1V6C38.7,6.1,38.4,6.1,38.3,6.2z M14.3,30.5c-0.2,0.1-0.3,0.2-0.4,0.4c-0.1,0.2-0.1,0.5-0.1,1v8.9
	c0,0.5,0,0.8,0.1,1s0.2,0.3,0.4,0.4s0.5,0.1,0.8,0.1v0.4c-0.7,0-1.7-0.1-3-0.1c-1.5,0-2.5,0-3.2,0.1v-0.4c0.4,0,0.7-0.1,0.8-0.1
	c0.2-0.1,0.3-0.2,0.4-0.4c0.1-0.2,0.1-0.5,0.1-1v-8.9c0-0.5,0-0.8-0.1-1s-0.2-0.3-0.4-0.4s-0.4-0.1-0.8-0.1V30
	c0.7,0,1.8,0.1,3.2,0.1c1.3,0,2.3,0,3-0.1v0.4C14.7,30.4,14.4,30.4,14.3,30.5z M39.6,30.5c1,0.5,1.8,1.3,2.4,2.2
	c0.6,1,0.8,2.1,0.8,3.5c0,1.3-0.3,2.5-0.9,3.5s-1.4,1.8-2.4,2.4S37.3,43,36,43c-1.4,0-2.5-0.3-3.6-0.8S30.6,41,30,40
	s-0.8-2.1-0.8-3.5c0-1.3,0.3-2.5,0.9-3.5c0.6-1,1.4-1.8,2.4-2.4c1-0.6,2.2-0.8,3.5-0.8C37.4,29.8,38.5,30,39.6,30.5z M34.4,30.9
	c-0.4,0.5-0.8,1.3-1,2.2c-0.2,1-0.4,2.1-0.4,3.3c0,1.2,0.1,2.3,0.4,3.3s0.6,1.7,1.1,2.2s1,0.8,1.5,0.8c0.6,0,1.1-0.3,1.6-0.8
	c0.4-0.5,0.8-1.3,1-2.2c0.2-1,0.4-2.1,0.4-3.3c0-1.2-0.1-2.3-0.4-3.3c-0.3-1-0.6-1.7-1.1-2.2s-1-0.8-1.5-0.8
	C35.3,30.1,34.8,30.3,34.4,30.9z M66.2,17.7c0.1,0.1,0.2,0.2,0.3,0.3c0.1,0.1,0.2,0.1,0.4,0.1v0.4c-1.6,0-2.6-0.1-3.1-0.1
	c-0.5,0-1.6,0-3.1,0.1V18c0.4,0,0.7,0,0.8-0.1c0.2,0,0.3-0.1,0.3-0.2c0-0.1,0-0.2-0.1-0.3l-3-4.3l-1.1,1.4c-0.6,0.8-0.9,1.5-0.9,2.1
	c0,0.4,0.1,0.7,0.4,1c0.3,0.3,0.6,0.4,1.1,0.4v0.4c-0.7,0-1.7-0.1-3.1-0.1c-0.8,0-1.4,0-1.7,0.1v-0.4c0.9-0.4,1.9-1.2,3-2.6l2.2-2.7
	l-4.1-5.9c-0.2-0.3-0.3-0.4-0.4-0.5c-0.1-0.1-0.2-0.2-0.3-0.3S53.4,6,53.2,6V5.7c1.7,0,2.7,0.1,3.3,0.1c0.5,0,1.4,0,2.9-0.1V6
	c-0.4,0-0.7,0-0.9,0.1c-0.2,0-0.3,0.1-0.3,0.2c0,0.1,0,0.2,0.1,0.3l2.6,3.7l1-1.3c0.6-0.7,0.9-1.3,0.9-1.9c0-0.3-0.1-0.6-0.3-0.8
	C62.3,6.2,62,6.1,61.6,6V5.7c0.7,0,1.5,0.1,2.4,0.1c0.8,0,1.3,0,1.7-0.1V6c-0.4,0.1-0.8,0.4-1.2,0.8s-0.8,0.8-1.2,1.3l-2.1,2.6
	l4.6,6.5C65.9,17.4,66.1,17.6,66.2,17.7z"/>
</svg>
