<?xml version="1.0" encoding="utf-8"?>
<!-- Generator: Adobe Illustrator 22.0.0, SVG Export Plug-In . SVG Version: 6.00 Build 0)  -->
<svg version="1.1" id="Layer_1" xmlns="http://www.w3.org/2000/svg" xmlns:xlink="http://www.w3.org/1999/xlink" x="0px" y="0px"
	 width="60px" height="60px" viewBox="0 0 60 60" style="enable-background:new 0 0 60 60;" xml:space="preserve">
<style type="text/css">
	.st0{fill:#FFFFFF;}
	.st1{fill:#191919;}
</style>
<rect y="0" class="st0" width="60" height="60"/>
<path class="st1" d="M46.8,16.5c-0.4,0.2-0.7,0.5-0.8,1c-0.1,0.5-0.2,1.2-0.2,2.3v20.5c0,1,0.1,1.8,0.2,2.3s0.4,0.8,0.8,1
	c0.4,0.2,1,0.3,1.9,0.3v0.8c-1.7-0.1-4.1-0.1-7.3-0.1c-3.3,0-5.8,0-7.3,0.1v-0.8c1,0,1.7-0.1,2.2-0.3c0.5-0.2,0.8-0.5,0.9-1
	c0.2-0.5,0.3-1.2,0.3-2.3V19.1l-10,25.5h-0.7L15.2,18.1v18.5c0,2,0.1,3.5,0.2,4.4c0.2,0.9,0.5,1.5,1.1,2c0.6,0.4,1.5,0.7,2.8,0.9
	v0.8c-1.1-0.1-2.6-0.1-4.6-0.1c-1.5,0-2.6,0-3.4,0.1v-0.8c0.9-0.2,1.5-0.5,1.9-0.9c0.4-0.4,0.7-1,0.8-1.8c0.1-0.8,0.2-2.1,0.2-3.7
	V19.8c0-1-0.1-1.8-0.2-2.3c-0.1-0.5-0.4-0.8-0.8-1c-0.4-0.2-1-0.3-1.9-0.3v-0.8c0.8,0.1,2,0.1,3.4,0.1c3.3,0,6.2,0,8.5-0.1L31,32.9
	l6.8-17.4h3.6c3.2,0,5.6,0,7.3-0.1v0.8C47.8,16.3,47.2,16.4,46.8,16.5z"/>
</svg>
